<?xml version="1.0" encoding="utf-8"?>
<svg id="wave" xmlns="http://www.w3.org/2000/svg" xmlns:xlink="http://www.w3.org/1999/xlink"
	 x="0px" y="0px" viewBox="0 0 150 2880" >
<path fill="#AA946C" d="M93,0L78.3,68.6c-14.6,68.5-44,205.8-37,343S91.7,686,103.7,823.2s-7.4,274.4-29.2,411.4
	c-21.8,137-46.2,273.8-31,410.9c15.2,136.9,69.8,274.2,70.2,411.4C114,2194,60,2331.2,56.2,2468.4c-3.9,137.2,42.5,274.4,65.6,343
	L145,2880H0v-68.6c0-68.5,0-205.8,0-343c0-137.2,0-274.4,0-411.6c0-137.2,0-274.4,0-411.4c0-137,0-273.8,0-410.9
	c0-136.9,0-274.2,0-411.4s0-274.4,0-411.6s0-274.4,0-343V0H93z"/>
</svg>
