<?xml version="1.0" encoding="utf-8"?>
<svg id="wave-s-light" xmlns="http://www.w3.org/2000/svg" xmlns:xlink="http://www.w3.org/1999/xlink"
 x="0px" y="0px" viewBox="0 0 150 1440" preserveAspectRatio="none">
<path fill="#CC9966" fill-opacity="80%" d="M150,145.8C150,61.2,104.7,0,104.7,0H46.9c18,37.9,7.6,82-2.5,135.6C20.3,263.6-5.4,344,11.3,472
	c16.7,128,69,189.7,73.1,317.7c3.9,128-73.3,278.1-83.9,406.1c-4.3,52.3,20.3,196.3,25.7,244.2h102.5l-13-48
	c-13.1-48-44.9-235.8-35.8-331.8s46.3-167.3,42.9-263.3c-3.5-96-36-172.5-50.6-268.5C57.7,432.4,150,236.4,150,145.8z"/>
</svg>
